<svg xmlns:svg="http://www.w3.org/2000/svg" xmlns="http://www.w3.org/2000/svg" width="862.1385085410923" height="439.89480967759516" version="1.1">
    <g transform="translate(0,0)">
        <path fill="none" stroke="Black" stroke-opacity="1" stroke-width="1" d="M 789.1385085410923 404.89480967759516 L 845.1385085410923 404.89480967759516 A 7,2.5 0 0 1 852.1385085410923 407.39480967759516 L 852.1385085410923 427.39480967759516 A 7,2.5 0 0 1 845.1385085410923 429.89480967759516 L 789.1385085410923 429.89480967759516 A 7,2.5 0 0 1 782.1385085410923 427.39480967759516 L 782.1385085410923 407.39480967759516 A 7,2.5 0 0 1 789.1385085410923 404.89480967759516"/>
        <text x="782.1385085410923" y="425.7281430109285" font-family="Arial" font-size="16" fill="Black">
            <tspan x="782.1385085410923" dy="0">kspacey</tspan>
        </text>
        <path fill="none" stroke="Black" stroke-opacity="1" stroke-width="1" d="M 594.0462857666511 331.7360288114665 L 658.0462857666511 331.7360288114665 A 8,2.5 0 0 1 666.0462857666511 334.2360288114665 L 666.0462857666511 354.2360288114665 A 8,2.5 0 0 1 658.0462857666511 356.7360288114665 L 594.0462857666511 356.7360288114665 A 8,2.5 0 0 1 586.0462857666511 354.2360288114665 L 586.0462857666511 334.2360288114665 A 8,2.5 0 0 1 594.0462857666511 331.7360288114665"/>
        <text x="586.0462857666511" y="352.5693621447998" font-family="Arial" font-size="16" fill="Black">
            <tspan x="586.0462857666511" dy="0">swilliams</tspan>
        </text>
        <path fill="none" stroke="Black" d="M 785.4616400463474 405.26746588994325 L 663.3457533020782 358.5159588485385"/>
        <polygon stroke="Black" fill="none" points="663.7420753986656 357.48075747592264 658.6762616676172 356.72826539727237 662.9494312054907 359.55116022115436"/>
        <path fill="none" stroke="Black" stroke-opacity="1" stroke-width="1" d="M 415.1764005129961 10 L 458.3764005129961 10 A 5.399999999999977,2.5 0 0 1 463.7764005129961 12.5 L 463.7764005129961 32.5 A 5.399999999999977,2.5 0 0 1 458.3764005129961 35 L 415.1764005129961 35 A 5.399999999999977,2.5 0 0 1 409.77640051299613 32.5 L 409.7764005129961 12.5 A 5.399999999999977,2.5 0 0 1 415.1764005129961 10"/>
        <text x="409.7764005129961" y="30.833333333333336" font-family="Arial" font-size="16" fill="Black">
            <tspan x="409.7764005129961" dy="0">bpitt</tspan>
        </text>
        <path fill="none" stroke="Black" stroke-opacity="1" stroke-width="1" d="M 18.399999999999977 401.1589434655975 L 85.60000000000002 401.1589434655975 A 8.399999999999977,2.5 0 0 1 94 403.6589434655975 L 94 423.6589434655975 A 8.399999999999977,2.5 0 0 1 85.60000000000002 426.1589434655975 L 18.399999999999977 426.1589434655975 A 8.399999999999977,2.5 0 0 1 10 423.6589434655975 L 10 403.6589434655975 A 8.399999999999977,2.5 0 0 1 18.399999999999977 401.1589434655975"/>
        <text x="10" y="421.9922767989308" font-family="Arial" font-size="16" fill="Black">
            <tspan x="10" dy="0">hford</tspan>
        </text>
        <path fill="none" stroke="Black" stroke-opacity="1" stroke-width="1" d="M 214.61493662759125 328.9806486983807 L 272.21493662759127 328.9806486983807 A 7.199999999999989,2.5 0 0 1 279.41493662759126 331.4806486983807 L 279.41493662759126 351.4806486983807 A 7.199999999999989,2.5 0 0 1 272.21493662759127 353.9806486983807 L 214.61493662759125 353.9806486983807 A 7.199999999999989,2.5 0 0 1 207.41493662759126 351.4806486983807 L 207.41493662759126 331.4806486983807 A 7.199999999999989,2.5 0 0 1 214.61493662759125 328.9806486983807"/>
        <text x="207.41493662759126" y="349.81398203171403" font-family="Arial" font-size="16" fill="Black">
            <tspan x="207.41493662759126" dy="0">lwilson</tspan>
        </text>
        <path fill="none" stroke="Black" d="M 85.14967076406526 401.1589434655975 L 206.42749512135254 355.42778627686823"/>
        <polygon stroke="Black" fill="none" points="206.81859467779034 356.46497199941905 211.1059375799395 353.6636501818657 206.03639556491473 354.3906005543174"/>
        <path fill="none" stroke="Black" stroke-opacity="1" stroke-width="1" d="M 411.4123169353875 229.67138480154085 L 459.4123169353875 229.67138480154085 A 6,2.5 0 0 1 465.4123169353875 232.17138480154085 L 465.4123169353875 252.17138480154085 A 6,2.5 0 0 1 459.4123169353875 254.67138480154085 L 411.4123169353875 254.67138480154085 A 6,2.5 0 0 1 405.4123169353875 252.17138480154085 L 405.4123169353875 232.17138480154085 A 6,2.5 0 0 1 411.4123169353875 229.67138480154085"/>
        <text x="405.4123169353875" y="250.5047181348742" font-family="Arial" font-size="16" fill="Black">
            <tspan x="405.4123169353875" dy="0">kbacon</tspan>
        </text>
        <path fill="none" stroke="Black" d="M 602.699076421963 331.7360288114665 L 463.16751019459593 257.0314012865107"/>
        <polygon stroke="Black" fill="none" points="463.6907132530631 256.05417477964556 458.75952628007553 254.67138480154085 462.64430713612876 258.0086277933758"/>
        <path fill="none" stroke="Black" d="M 436.6987798218191 35 L 435.52098530444465 224.67148119830028"/>
        <polygon stroke="Black" fill="none" points="434.412533361877 224.66459809382678 435.4899376265645 229.67138480154085 436.6294372470123 224.6783643027738"/>
        <path fill="none" stroke="Black" d="M 267.5815365969605 328.9806486983807 L 406.8064543427088 256.96756146113313"/>
        <polygon stroke="Black" fill="none" points="407.3157134965998 257.9521264413591 411.2475399714219 254.670441865109 406.29719518881774 255.98299648090716"/>
    </g>
</svg>
