<svg xmlns:svg="http://www.w3.org/2000/svg" xmlns="http://www.w3.org/2000/svg" width="254" height="155" version="1.1">
    <g transform="translate(0,0)">
        <path fill="none" stroke="Black" stroke-opacity="1" stroke-width="1" d="M 176 35 L 232 35 A 7,2.5 0 0 0 239 32.5 L 239 12.5 A 7,2.5 0 0 0 232 10 L 176 10 A 7,2.5 0 0 0 169 12.5 L 169 32.5 A 7,2.5 0 0 0 176 35"/>
        <text x="169" y="30.833333333333336" font-family="Arial" font-size="16" fill="Black">
            <tspan x="169" dy="0">kspacey</tspan>
        </text>
        <path fill="none" stroke="Black" stroke-opacity="1" stroke-width="1" d="M 172 90 L 236 90 A 8,2.5 0 0 0 244 87.5 L 244 67.5 A 8,2.5 0 0 0 236 65 L 172 65 A 8,2.5 0 0 0 164 67.5 L 164 87.5 A 8,2.5 0 0 0 172 90"/>
        <text x="164" y="85.83333333333333" font-family="Arial" font-size="16" fill="Black">
            <tspan x="164" dy="0">swilliams</tspan>
        </text>
        <path fill="none" stroke="Black" d="M 204 35 L 204 60"/>
        <polygon stroke="Black" fill="none" points="202.8915266867853 60 204 65 205.1084733132147 60"/>
        <path fill="none" stroke="Black" stroke-opacity="1" stroke-width="1" d="M 104.4 90 L 147.6 90 A 5.399999999999999,2.5 0 0 0 153 87.5 L 153 67.5 A 5.399999999999999,2.5 0 0 0 147.6 65 L 104.4 65 A 5.399999999999999,2.5 0 0 0 99 67.5 L 99 87.5 A 5.399999999999999,2.5 0 0 0 104.4 90"/>
        <text x="99" y="85.83333333333333" font-family="Arial" font-size="16" fill="Black">
            <tspan x="99" dy="0">bpitt</tspan>
        </text>
        <path fill="none" stroke="Black" stroke-opacity="1" stroke-width="1" d="M 18.4 35 L 85.6 35 A 8.399999999999999,2.5 0 0 0 94 32.5 L 94 12.5 A 8.399999999999999,2.5 0 0 0 85.6 10 L 18.4 10 A 8.399999999999999,2.5 0 0 0 10 12.5 L 10 32.5 A 8.399999999999999,2.5 0 0 0 18.4 35"/>
        <text x="10" y="30.833333333333336" font-family="Arial" font-size="16" fill="Black">
            <tspan x="10" dy="0">hford</tspan>
        </text>
        <path fill="none" stroke="Black" stroke-opacity="1" stroke-width="1" d="M 23.2 90 L 80.8 90 A 7.200000000000003,2.5 0 0 0 88 87.5 L 88 67.5 A 7.200000000000003,2.5 0 0 0 80.8 65 L 23.2 65 A 7.200000000000003,2.5 0 0 0 15.999999999999996 67.5 L 16 87.5 A 7.200000000000003,2.5 0 0 0 23.2 90"/>
        <text x="16" y="85.83333333333333" font-family="Arial" font-size="16" fill="Black">
            <tspan x="16" dy="0">lwilson</tspan>
        </text>
        <path fill="none" stroke="Black" d="M 52 35 L 52 60"/>
        <polygon stroke="Black" fill="none" points="50.8915266867853 60 52 65 53.1084733132147 60"/>
        <path fill="none" stroke="Black" stroke-opacity="1" stroke-width="1" d="M 102 145 L 150 145 A 6,2.5 0 0 0 156 142.5 L 156 122.5 A 6,2.5 0 0 0 150 120 L 102 120 A 6,2.5 0 0 0 96 122.5 L 96 142.5 A 6,2.5 0 0 0 102 145"/>
        <text x="96" y="140.83333333333334" font-family="Arial" font-size="16" fill="Black">
            <tspan x="96" dy="0">kbacon</tspan>
        </text>
        <path fill="none" stroke="Black" d="M 186.27272727272728 90 L 147.81356339667502 117.11864119465224"/>
        <polygon stroke="Black" fill="none" points="147.17478152837018 116.2127323632381 143.72727272727272 120 148.45234526497987 118.02455002606638"/>
        <path fill="none" stroke="Black" d="M 126 90 L 126 115"/>
        <polygon stroke="Black" fill="none" points="124.8915266867853 115 126 120 127.1084733132147 115"/>
        <path fill="none" stroke="Black" d="M 68.81818181818181 90 L 105.16884076272584 117.01738164797189"/>
        <polygon stroke="Black" fill="none" points="104.50761019338032 117.9070373230913 109.18181818181819 120 105.83007133207136 116.12772597285247"/>
    </g>
</svg>
